# Blender v2.79 (sub 0) OBJ File: ''
# www.blender.org
mtllib body.mtl
o Steve_Body
v -0.521593 1.497355 -1.147718
v 0.521593 1.497355 1.147720
v 0.521592 1.497355 -1.147719
v -0.521593 -1.497354 -1.147719
v -0.521593 1.497355 1.147721
v 0.521593 -1.497354 -1.147719
v -0.521592 -1.497355 1.147720
v 0.521593 -1.497355 1.147719
vt 0.439419 0.501069
vt 0.314588 0.373515
vt 0.440962 0.380069
vt 0.625501 0.005748
vt 0.505681 0.370022
vt 0.622224 0.375264
vt 0.500000 -0.005172
vt 0.441207 0.370784
vt 0.441206 -0.005172
vt 0.309159 -0.002509
vt 0.249632 0.373364
vt 0.309159 0.373364
vt 0.312738 0.372217
vt 0.438887 0.000239
vt 0.438887 0.372217
vt 0.183671 0.494358
vt 0.129334 0.382434
vt 0.185427 0.380179
vt 0.313044 0.494516
vt 0.508958 0.000506
vt 0.500000 0.370784
vt 0.249632 -0.002509
vt 0.312738 0.000239
vt 0.127578 0.496613
vn -0.5774 0.5774 -0.5773
vn 0.5774 0.5774 0.5774
vn 0.5773 0.5774 -0.5774
vn -0.5774 -0.5774 -0.5774
vn -0.5774 0.5774 0.5774
vn 0.5774 -0.5774 -0.5774
vn -0.5773 -0.5774 0.5774
vn 0.5774 -0.5774 0.5773
usemtl Steve
s 1
f 1/1/1 2/2/2 3/3/3
f 4/4/4 5/5/5 1/6/1
f 4/7/4 3/8/3 6/9/6
f 7/10/7 2/11/2 5/12/5
f 2/13/2 6/14/6 3/15/3
f 4/16/4 8/17/8 7/18/7
f 1/1/1 5/19/5 2/2/2
f 4/4/4 7/20/7 5/5/5
f 4/7/4 1/21/1 3/8/3
f 7/10/7 8/22/8 2/11/2
f 2/13/2 8/23/8 6/14/6
f 4/16/4 6/24/6 8/17/8
