# Blender v2.79 (sub 0) OBJ File: ''
# www.blender.org
mtllib lleg.mtl
o Steve_LLeg
v -0.521593 1.497354 0.568124
v 0.521592 1.497354 -0.568124
v -0.521593 1.497354 -0.568123
v -0.521593 -1.497354 -0.568124
v 0.521593 -1.497354 -0.568124
v -0.521592 -1.497354 0.568124
v 0.521593 1.497354 0.568124
v 0.521593 -1.497354 0.568123
vt 0.122790 0.486939
vt 0.062097 0.380523
vt 0.122711 0.377515
vt 0.250211 0.001371
vt 0.187955 0.370491
vt 0.250211 0.373175
vt 0.187524 0.370784
vt 0.125900 0.000071
vt 0.187525 0.000071
vt 0.003760 -0.002275
vt 0.058530 0.367886
vt -0.003674 0.368140
vt 0.068050 0.003935
vt 0.122484 0.365241
vt 0.068050 0.365241
vt 0.129150 0.496087
vt 0.186982 0.384604
vt 0.185797 0.496086
vt 0.062175 0.489947
vt 0.187955 -0.001314
vt 0.125900 0.370784
vt 0.065964 -0.002528
vt 0.122484 0.003935
vt 0.130335 0.384604
vn -0.5774 0.5774 0.5774
vn 0.5773 0.5774 -0.5774
vn -0.5774 0.5774 -0.5773
vn -0.5774 -0.5774 -0.5774
vn 0.5774 -0.5773 -0.5774
vn -0.5773 -0.5774 0.5774
vn 0.5774 0.5774 0.5774
vn 0.5774 -0.5774 0.5773
usemtl Steve
s 1
f 1/1/1 2/2/2 3/3/3
f 4/4/4 1/5/1 3/6/3
f 3/7/3 5/8/5 4/9/4
f 6/10/6 7/11/7 1/12/1
f 8/13/8 2/14/2 7/15/7
f 5/16/5 6/17/6 4/18/4
f 1/1/1 7/19/7 2/2/2
f 4/4/4 6/20/6 1/5/1
f 3/7/3 2/21/2 5/8/5
f 6/10/6 8/22/8 7/11/7
f 8/13/8 5/23/5 2/14/2
f 5/16/5 8/24/8 6/17/6
