# Blender v2.79 (sub 0) OBJ File: ''
# www.blender.org
mtllib rleg.mtl
o Steve_RLeg
v -0.521592 1.497354 0.568124
v 0.521593 1.497354 -0.568125
v -0.521592 1.497354 -0.568125
v -0.521592 -1.497354 -0.568126
v 0.521594 -1.497354 -0.568126
v -0.521591 -1.497354 0.568123
v 0.521594 1.497354 0.568124
v 0.521594 -1.497354 0.568122
vt 0.123284 0.495731
vt 0.063538 0.374441
vt 0.124564 0.372844
vt 0.250211 0.001371
vt 0.190639 0.367806
vt 0.250211 0.370491
vt 0.000807 0.377727
vt 0.059514 0.009620
vt 0.000807 0.009620
vt 0.000878 0.010074
vt 0.062985 0.373364
vt 0.000878 0.373364
vt 0.065375 0.003473
vt 0.125158 0.375770
vt 0.065586 0.375905
vt 0.130391 0.486732
vt 0.177758 0.401205
vt 0.179068 0.489942
vt 0.062259 0.497328
vt 0.190639 -0.001314
vt 0.059514 0.377727
vt 0.062985 0.010074
vt 0.124947 0.003338
vt 0.129081 0.397994
vn -0.5774 0.5774 0.5774
vn 0.5774 0.5774 -0.5774
vn -0.5774 0.5774 -0.5774
vn -0.5774 -0.5774 -0.5774
vn 0.5774 -0.5773 -0.5774
vn -0.5773 -0.5774 0.5774
vn 0.5774 0.5774 0.5774
vn 0.5774 -0.5774 0.5773
usemtl Steve
s 1
f 1/1/1 2/2/2 3/3/3
f 4/4/4 1/5/1 3/6/3
f 3/7/3 5/8/5 4/9/4
f 6/10/6 7/11/7 1/12/1
f 8/13/8 2/14/2 7/15/7
f 5/16/5 6/17/6 4/18/4
f 1/1/1 7/19/7 2/2/2
f 4/4/4 6/20/6 1/5/1
f 3/7/3 2/21/2 5/8/5
f 6/10/6 8/22/8 7/11/7
f 8/13/8 5/23/5 2/14/2
f 5/16/5 8/24/8 6/17/6
